# This file uses centimeters as units for non-parametric coordinates.

mtllib contorno.mtl
g default
v -82.151098 2.751671 95.059101
v 64.088412 2.751671 95.059101
v -82.151098 2.751671 -67.612393
v 64.088412 2.751671 -67.612393
v -34.593225 2.751671 -67.612393
v -34.593225 2.751671 95.059101
v 34.662070 2.751671 -67.612393
v 34.662070 2.751671 95.059101
v -82.151098 2.751671 -47.777481
v -33.534921 2.751671 -47.044300
v 34.110041 2.751671 -45.561875
v 64.088412 2.751671 -47.777481
v -82.151090 2.751671 44.226902
v -34.041196 2.751671 42.886295
v 33.086077 2.751671 44.105045
v 64.088412 2.751671 44.226902
vt 0.000000 0.000000
vt 0.894980 0.000000
vt 0.000000 1.000000
vt 0.894980 1.000000
vt 0.166078 1.000000
vt 0.166078 0.000000
vt 0.773951 1.000000
vt 0.773951 0.000000
vt 0.000000 0.910157
vt 0.166078 0.910157
vt 0.773951 0.910157
vt 0.894980 0.910157
vt 0.000000 0.102608
vt 0.166078 0.102608
vt 0.773951 0.102608
vt 0.894980 0.102608
vn 0.000000 1.000000 0.000000
vn 0.000000 1.000000 0.000000
vn 0.000000 1.000000 0.000000
vn 0.000000 1.000000 0.000000
vn 0.000000 1.000000 -0.000000
vn 0.000000 1.000000 0.000000
vn -0.000000 1.000000 -0.000000
vn 0.000000 1.000000 0.000000
vn -0.000000 1.000000 0.000000
vn -0.000000 1.000000 0.000000
vn 0.000000 1.000000 0.000000
vn 0.000000 1.000000 0.000000
vn 0.000000 1.000000 0.000000
vn -0.000000 1.000000 0.000000
vn 0.000000 1.000000 0.000000
vn 0.000000 1.000000 0.000000
s 1
g pPlane20
usemtl initialShadingGroup
f 11/11/1 12/12/2 7/7/3
f 7/7/3 12/12/2 4/4/4
f 10/10/5 5/5/6 9/9/7
f 9/9/7 5/5/6 3/3/8
f 11/11/1 7/7/3 10/10/5
f 10/10/5 7/7/3 5/5/6
f 13/13/9 14/14/10 9/9/7
f 9/9/7 14/14/10 10/10/5
f 15/15/11 16/16/12 11/11/1
f 11/11/1 16/16/12 12/12/2
f 1/1/13 6/6/14 13/13/9
f 13/13/9 6/6/14 14/14/10
f 8/8/15 15/15/11 6/6/14
f 6/6/14 15/15/11 14/14/10
f 2/2/16 16/16/12 8/8/15
f 8/8/15 16/16/12 15/15/11
