# This file uses centimeters as units for non-parametric coordinates.

mtllib mas23.mtl
g default
v 67.528626 17.218407 90.178792
v -72.250717 17.218407 90.178792
v 67.528626 17.218407 -72.544916
v -72.250717 17.218407 -72.544916
v 34.552604 17.218407 -72.544916
v 34.552604 17.218407 90.178792
v -33.176519 17.218407 -72.544916
v -33.176519 17.218407 90.178792
v 67.528626 17.218407 -46.266013
v 34.552604 17.218407 -46.266013
v -33.176519 17.218407 -46.266013
v -72.250717 17.218407 -46.266013
v 67.528626 17.218407 45.193243
v 34.552604 17.218407 45.193243
v -33.176519 17.218407 45.193243
v -72.250717 17.218407 45.193243
vt 0.375000 0.750000
vt 0.625000 0.750000
vt 0.375000 1.000000
vt 0.625000 1.000000
vt 0.429172 0.750000
vt 0.429172 1.000000
vt 0.573178 0.750000
vt 0.573178 1.000000
vt 0.375000 0.795168
vt 0.429172 0.795168
vt 0.573178 0.795168
vt 0.625000 0.795168
vt 0.375000 0.952367
vt 0.429172 0.952367
vt 0.573178 0.952367
vt 0.625000 0.952367
vn 0.000000 1.000000 0.000000
vn 0.000000 1.000000 0.000000
vn 0.000000 1.000000 0.000000
vn 0.000000 1.000000 0.000000
vn 0.000000 1.000000 0.000000
vn 0.000000 1.000000 0.000000
vn 0.000000 1.000000 0.000000
vn 0.000000 1.000000 0.000000
vn 0.000000 1.000000 0.000000
vn 0.000000 1.000000 0.000000
vn 0.000000 1.000000 0.000000
vn 0.000000 1.000000 0.000000
vn 0.000000 1.000000 0.000000
vn 0.000000 1.000000 0.000000
vn 0.000000 1.000000 0.000000
vn 0.000000 1.000000 0.000000
s 1
g pCube100
usemtl initialShadingGroup
f 13/13/1 14/14/2 1/3/3
f 1/3/3 14/14/2 6/6/4
f 14/14/2 15/15/5 6/6/4
f 6/6/4 15/15/5 8/8/6
f 15/15/5 16/16/7 8/8/6
f 8/8/6 16/16/7 2/4/8
f 3/1/9 5/5/10 9/9/11
f 9/9/11 5/5/10 10/10/12
f 5/5/10 7/7/13 10/10/12
f 10/10/12 7/7/13 11/11/14
f 7/7/13 4/2/15 11/11/14
f 11/11/14 4/2/15 12/12/16
f 9/9/11 10/10/12 13/13/1
f 13/13/1 10/10/12 14/14/2
f 11/11/14 12/12/16 15/15/5
f 15/15/5 12/12/16 16/16/7
g default
v 67.528626 27.022512 90.178792
v -72.250717 27.022512 90.178792
v 67.528626 27.022512 -72.544916
v -72.250717 27.022512 -72.544916
v 34.552604 27.022512 -72.544916
v 34.552604 27.022512 90.178792
v -33.176519 27.022512 -72.544916
v -33.176519 27.022512 90.178792
v 67.528626 27.022512 -46.266013
v 34.552604 27.022512 -46.266013
v -33.176519 27.022512 -46.266013
v -72.250717 27.022512 -46.266013
v 67.528626 27.022512 45.193243
v 34.552604 27.022512 45.193243
v -33.176519 27.022512 45.193243
v -72.250717 27.022512 45.193243
vt 0.375000 0.750000
vt 0.625000 0.750000
vt 0.375000 1.000000
vt 0.625000 1.000000
vt 0.429172 0.750000
vt 0.429172 1.000000
vt 0.573178 0.750000
vt 0.573178 1.000000
vt 0.375000 0.795168
vt 0.429172 0.795168
vt 0.573178 0.795168
vt 0.625000 0.795168
vt 0.375000 0.952367
vt 0.429172 0.952367
vt 0.573178 0.952367
vt 0.625000 0.952367
vn 0.000000 1.000000 0.000000
vn 0.000000 1.000000 0.000000
vn 0.000000 1.000000 0.000000
vn 0.000000 1.000000 0.000000
vn 0.000000 1.000000 0.000000
vn 0.000000 1.000000 0.000000
vn 0.000000 1.000000 0.000000
vn 0.000000 1.000000 0.000000
vn 0.000000 1.000000 0.000000
vn 0.000000 1.000000 0.000000
vn 0.000000 1.000000 0.000000
vn 0.000000 1.000000 0.000000
vn 0.000000 1.000000 0.000000
vn 0.000000 1.000000 0.000000
vn 0.000000 1.000000 0.000000
vn 0.000000 1.000000 0.000000
s 1
g pCube219
usemtl initialShadingGroup
f 29/29/17 30/30/18 17/19/19
f 17/19/19 30/30/18 22/22/20
f 30/30/18 31/31/21 22/22/20
f 22/22/20 31/31/21 24/24/22
f 31/31/21 32/32/23 24/24/22
f 24/24/22 32/32/23 18/20/24
f 19/17/25 21/21/26 25/25/27
f 25/25/27 21/21/26 26/26/28
f 21/21/26 23/23/29 26/26/28
f 26/26/28 23/23/29 27/27/30
f 23/23/29 20/18/31 27/27/30
f 27/27/30 20/18/31 28/28/32
f 25/25/27 26/26/28 29/29/17
f 29/29/17 26/26/28 30/30/18
f 27/27/30 28/28/32 31/31/21
f 31/31/21 28/28/32 32/32/23
