# This file uses centimeters as units for non-parametric coordinates.

mtllib pared23.mtl
g default
v 68.378266 17.091451 89.220707
v 68.378281 26.774134 89.220707
v 68.378266 17.091451 -70.984524
v 68.378281 26.774134 -70.984524
v -72.404551 17.091451 89.213134
v -72.404551 26.774134 89.213134
v -72.404551 17.091451 -70.984524
v -72.404551 26.774134 -70.984524
vt 0.000000 0.000000
vt 0.116862 0.000000
vt 0.000000 1.000000
vt 0.116862 1.000000
vt 0.000000 0.000000
vt 1.000000 0.000000
vt 1.000000 1.000000
vt 0.000000 1.000000
vt 0.000000 0.000000
vt 1.000000 0.000000
vt 1.000000 1.000000
vt 0.000000 1.000000
vt 0.000000 0.000000
vt 1.000000 0.000000
vt 1.000000 1.000000
vt 0.000000 1.000000
vn -1.000000 0.000002 0.000000
vn -1.000000 0.000002 0.000000
vn -1.000000 0.000002 0.000000
vn -1.000000 0.000002 0.000000
vn 0.000054 -0.000000 -1.000000
vn 0.000054 -0.000000 -1.000000
vn 0.000054 -0.000000 -1.000000
vn 0.000054 -0.000000 -1.000000
vn 0.000000 0.000000 1.000000
vn 0.000000 0.000000 1.000000
vn 0.000000 0.000000 1.000000
vn 0.000000 0.000000 1.000000
vn 1.000000 -0.000000 0.000000
vn 1.000000 -0.000000 0.000000
vn 1.000000 -0.000000 0.000000
vn 1.000000 -0.000000 0.000000
s 1
g pPlane27
usemtl initialShadingGroup
f 1/1/1 2/2/2 3/3/3
f 3/3/3 2/2/2 4/4/4
s 2
f 2/5/5 1/6/6 6/8/7
f 6/8/7 1/6/6 5/7/8
s 3
f 3/9/9 4/10/10 7/12/11
f 7/12/11 4/10/10 8/11/12
s 4
f 7/13/13 8/14/14 5/16/15
f 5/16/15 8/14/14 6/15/16
g default
v 68.378266 26.840741 89.220707
v 68.378281 37.251739 89.220707
v 68.378266 26.840741 -70.984524
v 68.378281 37.251739 -70.984524
v -72.404551 26.840741 89.213134
v -72.404551 37.251739 89.213134
v -72.404551 26.840741 -70.984524
v -72.404551 37.251739 -70.984524
vt 0.000000 0.000000
vt 0.116862 0.000000
vt 0.000000 1.000000
vt 0.116862 1.000000
vt 0.000000 0.000000
vt 1.000000 0.000000
vt 1.000000 1.000000
vt 0.000000 1.000000
vt 0.000000 0.000000
vt 1.000000 0.000000
vt 1.000000 1.000000
vt 0.000000 1.000000
vt 0.000000 0.000000
vt 1.000000 0.000000
vt 1.000000 1.000000
vt 0.000000 1.000000
vn -1.000000 0.000001 0.000000
vn -1.000000 0.000001 0.000000
vn -1.000000 0.000001 0.000000
vn -1.000000 0.000001 0.000000
vn 0.000054 -0.000000 -1.000000
vn 0.000054 -0.000000 -1.000000
vn 0.000054 -0.000000 -1.000000
vn 0.000054 -0.000000 -1.000000
vn 0.000000 0.000000 1.000000
vn 0.000000 0.000000 1.000000
vn 0.000000 0.000000 1.000000
vn 0.000000 0.000000 1.000000
vn 1.000000 -0.000000 0.000000
vn 1.000000 -0.000000 0.000000
vn 1.000000 -0.000000 0.000000
vn 1.000000 -0.000000 0.000000
s 1
g pPlane29
usemtl initialShadingGroup
f 9/17/17 10/18/18 11/19/19
f 11/19/19 10/18/18 12/20/20
s 2
f 10/21/21 9/22/22 14/24/23
f 14/24/23 9/22/22 13/23/24
s 3
f 11/25/25 12/26/26 15/28/27
f 15/28/27 12/26/26 16/27/28
s 4
f 15/29/29 16/30/30 13/32/31
f 13/32/31 16/30/30 14/31/32
