# This file uses centimeters as units for non-parametric coordinates.

mtllib piso23.mtl
g default
v -72.510464 16.955039 89.856330
v 68.013518 16.955039 89.856330
v -72.510464 16.955039 -71.490522
v 68.013518 16.955039 -71.490522
v -32.935250 16.955039 -71.490522
v -32.935250 16.955039 89.856330
v 33.985785 16.955039 -71.490522
v 33.985785 16.955039 89.856330
v -72.510464 16.955039 -45.592617
v -32.935250 16.955039 -45.592617
v 33.985785 16.955039 -45.592617
v 68.013518 16.955039 -45.592617
v -72.510464 16.955039 44.540643
v -32.935250 16.955039 44.540643
v 33.985785 16.955039 44.540643
v 68.013518 16.955039 44.540643
v -32.935250 19.941779 -45.592617
v -32.935250 19.941779 44.540643
v 33.985785 19.941779 -45.592617
v 33.985785 19.941779 44.540643
v -33.991161 19.904513 -47.014779
v -33.991161 19.904513 45.962805
v 35.041696 19.904513 -47.014779
v 35.041696 19.904513 45.962805
v -33.991161 16.982808 -47.014779
v -33.991161 16.982808 45.962805
v 35.041696 16.982808 -47.014779
v 35.041696 16.982808 45.962805
vt 0.375000 0.750000
vt 0.625000 0.750000
vt 0.375000 1.000000
vt 0.625000 1.000000
vt 0.429172 0.750000
vt 0.429172 1.000000
vt 0.573178 0.750000
vt 0.573178 1.000000
vt 0.375000 0.795168
vt 0.429172 0.795168
vt 0.573178 0.795168
vt 0.625000 0.795168
vt 0.375000 0.952367
vt 0.429172 0.952367
vt 0.573178 0.952367
vt 0.625000 0.952367
vt 0.000000 0.000000
vt 1.000000 0.000000
vt 1.000000 1.000000
vt 0.000000 1.000000
vt 0.000000 0.000000
vt 1.000000 0.000000
vt 1.000000 1.000000
vt 0.000000 1.000000
vt 0.000000 0.000000
vt 1.000000 0.000000
vt 1.000000 1.000000
vt 0.000000 1.000000
vt 0.000000 0.000000
vt 1.000000 0.000000
vt 1.000000 1.000000
vt 0.000000 1.000000
vt 0.000000 0.000000
vt 1.000000 0.000000
vt 1.000000 1.000000
vt 0.000000 1.000000
vt 0.000000 0.000000
vt 1.000000 0.000000
vt 1.000000 1.000000
vt 0.000000 1.000000
vt 0.000000 0.000000
vt 1.000000 0.000000
vt 1.000000 1.000000
vt 0.000000 1.000000
vt 0.000000 0.000000
vt 1.000000 0.000000
vt 1.000000 1.000000
vt 0.000000 1.000000
vt 0.000000 0.000000
vt 1.000000 0.000000
vt 1.000000 1.000000
vt 0.000000 1.000000
vt 0.000000 0.000000
vt 1.000000 0.000000
vt 1.000000 1.000000
vt 0.000000 1.000000
vt 0.000000 0.000000
vt 1.000000 0.000000
vt 1.000000 1.000000
vt 0.000000 1.000000
vt 0.000000 0.000000
vt 1.000000 0.000000
vt 1.000000 1.000000
vt 0.000000 1.000000
vn 0.000000 -1.000000 0.000000
vn 0.000000 -1.000000 0.000000
vn 0.000000 -1.000000 0.000000
vn 0.000000 -1.000000 0.000000
vn 0.000000 -1.000000 0.000000
vn 0.000000 -1.000000 0.000000
vn 0.000000 -1.000000 0.000000
vn 0.000000 -1.000000 0.000000
vn 0.000000 -1.000000 0.000000
vn 0.000000 -1.000000 0.000000
vn 0.000000 -1.000000 0.000000
vn 0.000000 -1.000000 0.000000
vn 0.000000 -1.000000 0.000000
vn 0.000000 -1.000000 0.000000
vn 0.000000 -1.000000 0.000000
vn 0.000000 -1.000000 0.000000
vn 1.000000 0.000000 0.000000
vn 1.000000 0.000000 0.000000
vn 1.000000 0.000000 0.000000
vn 1.000000 0.000000 0.000000
vn -1.000000 0.000000 0.000000
vn -1.000000 0.000000 0.000000
vn -1.000000 0.000000 0.000000
vn -1.000000 0.000000 0.000000
vn 0.000000 0.000000 1.000000
vn 0.000000 0.000000 1.000000
vn 0.000000 0.000000 1.000000
vn 0.000000 0.000000 1.000000
vn 0.000000 0.000000 -1.000000
vn 0.000000 0.000000 -1.000000
vn 0.000000 0.000000 -1.000000
vn 0.000000 0.000000 -1.000000
vn -0.035271 0.999378 0.000000
vn -0.035271 0.999378 0.000000
vn -0.035271 0.999378 0.000000
vn -0.035271 0.999378 0.000000
vn 0.035271 0.999378 0.000000
vn 0.035271 0.999378 0.000000
vn 0.035271 0.999378 0.000000
vn 0.035271 0.999378 0.000000
vn 0.000000 0.999657 -0.026195
vn 0.000000 0.999657 -0.026195
vn 0.000000 0.999657 -0.026195
vn 0.000000 0.999657 -0.026195
vn 0.000000 0.999657 0.026195
vn 0.000000 0.999657 0.026195
vn 0.000000 0.999657 0.026195
vn 0.000000 0.999657 0.026195
vn -1.000000 0.000000 0.000000
vn -1.000000 0.000000 0.000000
vn -1.000000 0.000000 0.000000
vn -1.000000 0.000000 0.000000
vn 1.000000 0.000000 0.000000
vn 1.000000 0.000000 0.000000
vn 1.000000 0.000000 0.000000
vn 1.000000 0.000000 0.000000
vn 0.000000 0.000000 -1.000000
vn 0.000000 0.000000 -1.000000
vn 0.000000 0.000000 -1.000000
vn 0.000000 0.000000 -1.000000
vn 0.000000 0.000000 1.000000
vn 0.000000 0.000000 1.000000
vn 0.000000 0.000000 1.000000
vn 0.000000 0.000000 1.000000
s 1
g pCube98
usemtl initialShadingGroup
f 13/13/1 14/14/2 1/3/3
f 1/3/3 14/14/2 6/6/4
f 14/14/2 15/15/5 6/6/4
f 6/6/4 15/15/5 8/8/6
f 15/15/5 16/16/7 8/8/6
f 8/8/6 16/16/7 2/4/8
f 3/1/9 5/5/10 9/9/11
f 9/9/11 5/5/10 10/10/12
f 5/5/10 7/7/13 10/10/12
f 10/10/12 7/7/13 11/11/14
f 7/7/13 4/2/15 11/11/14
f 11/11/14 4/2/15 12/12/16
f 9/9/11 10/10/12 13/13/1
f 13/13/1 10/10/12 14/14/2
f 11/11/14 12/12/16 15/15/5
f 15/15/5 12/12/16 16/16/7
s 3
f 14/17/17 10/18/18 18/20/19
f 18/20/19 10/18/18 17/19/20
s 4
f 11/21/21 15/22/22 19/24/23
f 19/24/23 15/22/22 20/23/24
s 5
f 10/25/25 11/26/26 17/28/27
f 17/28/27 11/26/26 19/27/28
s 6
f 15/29/29 14/30/30 20/32/31
f 20/32/31 14/30/30 18/31/32
s 7
f 18/33/33 17/34/34 22/36/35
f 22/36/35 17/34/34 21/35/36
s 8
f 19/37/37 20/38/38 23/40/39
f 23/40/39 20/38/38 24/39/40
s 9
f 17/41/41 19/42/42 21/44/43
f 21/44/43 19/42/42 23/43/44
s 10
f 20/45/45 18/46/46 24/48/47
f 24/48/47 18/46/46 22/47/48
s 11
f 22/49/49 21/50/50 26/52/51
f 26/52/51 21/50/50 25/51/52
s 12
f 23/53/53 24/54/54 27/56/55
f 27/56/55 24/54/54 28/55/56
s 13
f 21/57/57 23/58/58 25/60/59
f 25/60/59 23/58/58 27/59/60
s 14
f 24/61/61 22/62/62 28/64/63
f 28/64/63 22/62/62 26/63/64
g default
v -72.510464 26.750969 89.856330
v 68.013518 26.750969 89.856330
v -72.510464 26.750969 -71.490522
v 68.013518 26.750969 -71.490522
v -32.935250 26.750969 -71.490522
v -32.935250 26.750969 89.856330
v 33.985785 26.750969 -71.490522
v 33.985785 26.750969 89.856330
v -72.510464 26.750969 -45.592617
v -32.935250 26.750969 -45.592617
v 33.985785 26.750969 -45.592617
v 68.013518 26.750969 -45.592617
v -72.510464 26.750969 44.540643
v -32.935250 26.750969 44.540643
v 33.985785 26.750969 44.540643
v 68.013518 26.750969 44.540643
v -32.935250 29.737709 -45.592617
v -32.935250 29.737709 44.540643
v 33.985785 29.737709 -45.592617
v 33.985785 29.737709 44.540643
v -34.871677 29.737709 -48.200712
v -34.871677 29.737709 47.148738
v 35.922213 29.737709 -48.200712
v 35.922213 29.737709 47.148738
v -34.871677 26.741469 -48.200712
v -34.871677 26.741469 47.148738
v 35.922213 26.741469 -48.200712
v 35.922213 26.741469 47.148738
vt 0.375000 0.750000
vt 0.625000 0.750000
vt 0.375000 1.000000
vt 0.625000 1.000000
vt 0.429172 0.750000
vt 0.429172 1.000000
vt 0.573178 0.750000
vt 0.573178 1.000000
vt 0.375000 0.795168
vt 0.429172 0.795168
vt 0.573178 0.795168
vt 0.625000 0.795168
vt 0.375000 0.952367
vt 0.429172 0.952367
vt 0.573178 0.952367
vt 0.625000 0.952367
vt 0.000000 0.000000
vt 1.000000 0.000000
vt 1.000000 1.000000
vt 0.000000 1.000000
vt 0.000000 0.000000
vt 1.000000 0.000000
vt 1.000000 1.000000
vt 0.000000 1.000000
vt 0.000000 0.000000
vt 1.000000 0.000000
vt 1.000000 1.000000
vt 0.000000 1.000000
vt 0.000000 0.000000
vt 1.000000 0.000000
vt 1.000000 1.000000
vt 0.000000 1.000000
vt 0.000000 0.000000
vt 1.000000 0.000000
vt 1.000000 1.000000
vt 0.000000 1.000000
vt 0.000000 0.000000
vt 1.000000 0.000000
vt 1.000000 1.000000
vt 0.000000 1.000000
vt 0.000000 0.000000
vt 1.000000 0.000000
vt 1.000000 1.000000
vt 0.000000 1.000000
vt 0.000000 0.000000
vt 1.000000 0.000000
vt 1.000000 1.000000
vt 0.000000 1.000000
vt 0.000000 0.000000
vt 1.000000 0.000000
vt 1.000000 1.000000
vt 0.000000 1.000000
vt 0.000000 0.000000
vt 1.000000 0.000000
vt 1.000000 1.000000
vt 0.000000 1.000000
vt 0.000000 0.000000
vt 1.000000 0.000000
vt 1.000000 1.000000
vt 0.000000 1.000000
vt 0.000000 0.000000
vt 1.000000 0.000000
vt 1.000000 1.000000
vt 0.000000 1.000000
vn 0.000000 -1.000000 0.000000
vn 0.000000 -1.000000 0.000000
vn 0.000000 -1.000000 0.000000
vn 0.000000 -1.000000 0.000000
vn 0.000000 -1.000000 0.000000
vn 0.000000 -1.000000 0.000000
vn 0.000000 -1.000000 0.000000
vn 0.000000 -1.000000 0.000000
vn 0.000000 -1.000000 0.000000
vn 0.000000 -1.000000 0.000000
vn 0.000000 -1.000000 0.000000
vn 0.000000 -1.000000 0.000000
vn 0.000000 -1.000000 0.000000
vn 0.000000 -1.000000 0.000000
vn 0.000000 -1.000000 0.000000
vn 0.000000 -1.000000 0.000000
vn 1.000000 0.000000 0.000000
vn 1.000000 0.000000 0.000000
vn 1.000000 0.000000 0.000000
vn 1.000000 0.000000 0.000000
vn -1.000000 0.000000 0.000000
vn -1.000000 0.000000 0.000000
vn -1.000000 0.000000 0.000000
vn -1.000000 0.000000 0.000000
vn 0.000000 0.000000 1.000000
vn 0.000000 0.000000 1.000000
vn 0.000000 0.000000 1.000000
vn 0.000000 0.000000 1.000000
vn 0.000000 0.000000 -1.000000
vn 0.000000 0.000000 -1.000000
vn 0.000000 0.000000 -1.000000
vn 0.000000 0.000000 -1.000000
vn 0.000000 1.000000 0.000000
vn 0.000000 1.000000 0.000000
vn 0.000000 1.000000 0.000000
vn 0.000000 1.000000 0.000000
vn 0.000000 1.000000 0.000000
vn 0.000000 1.000000 0.000000
vn 0.000000 1.000000 0.000000
vn 0.000000 1.000000 0.000000
vn 0.000000 1.000000 -0.000000
vn 0.000000 1.000000 -0.000000
vn 0.000000 1.000000 -0.000000
vn 0.000000 1.000000 0.000000
vn 0.000000 1.000000 0.000000
vn 0.000000 1.000000 0.000000
vn 0.000000 1.000000 0.000000
vn 0.000000 1.000000 0.000000
vn -1.000000 0.000000 0.000000
vn -1.000000 0.000000 0.000000
vn -1.000000 0.000000 0.000000
vn -1.000000 0.000000 0.000000
vn 1.000000 0.000000 0.000000
vn 1.000000 0.000000 0.000000
vn 1.000000 0.000000 0.000000
vn 1.000000 0.000000 0.000000
vn 0.000000 0.000000 -1.000000
vn 0.000000 0.000000 -1.000000
vn 0.000000 0.000000 -1.000000
vn 0.000000 0.000000 -1.000000
vn 0.000000 0.000000 1.000000
vn 0.000000 0.000000 1.000000
vn 0.000000 0.000000 1.000000
vn 0.000000 0.000000 1.000000
s 1
g pCube102
usemtl initialShadingGroup
f 41/77/65 42/78/66 29/67/67
f 29/67/67 42/78/66 34/70/68
f 42/78/66 43/79/69 34/70/68
f 34/70/68 43/79/69 36/72/70
f 43/79/69 44/80/71 36/72/70
f 36/72/70 44/80/71 30/68/72
f 31/65/73 33/69/74 37/73/75
f 37/73/75 33/69/74 38/74/76
f 33/69/74 35/71/77 38/74/76
f 38/74/76 35/71/77 39/75/78
f 35/71/77 32/66/79 39/75/78
f 39/75/78 32/66/79 40/76/80
f 37/73/75 38/74/76 41/77/65
f 41/77/65 38/74/76 42/78/66
f 39/75/78 40/76/80 43/79/69
f 43/79/69 40/76/80 44/80/71
s 3
f 42/81/81 38/82/82 46/84/83
f 46/84/83 38/82/82 45/83/84
s 4
f 39/85/85 43/86/86 47/88/87
f 47/88/87 43/86/86 48/87/88
s 5
f 38/89/89 39/90/90 45/92/91
f 45/92/91 39/90/90 47/91/92
s 6
f 43/93/93 42/94/94 48/96/95
f 48/96/95 42/94/94 46/95/96
s 7
f 46/97/97 45/98/98 50/100/99
f 50/100/99 45/98/98 49/99/100
s 8
f 47/101/101 48/102/102 51/104/103
f 51/104/103 48/102/102 52/103/104
s 9
f 45/105/105 47/106/106 49/108/107
f 49/108/107 47/106/106 51/107/108
s 10
f 48/109/109 46/110/110 52/112/111
f 52/112/111 46/110/110 50/111/112
s 11
f 50/113/113 49/114/114 54/116/115
f 54/116/115 49/114/114 53/115/116
s 12
f 51/117/117 52/118/118 55/120/119
f 55/120/119 52/118/118 56/119/120
s 13
f 49/121/121 51/122/122 53/124/123
f 53/124/123 51/122/122 55/123/124
s 14
f 52/125/125 50/126/126 56/128/127
f 56/128/127 50/126/126 54/127/128
