# This file uses centimeters as units for non-parametric coordinates.

mtllib pozo1.mtl
g default
v -16.467752 0.789746 4.682896
v -16.467759 0.789746 4.420248
v -16.467683 0.789746 -4.326236
v -16.467698 0.789746 -4.527818
v 17.761741 0.789747 4.682896
v 17.761764 0.789747 4.420248
v 17.761771 0.789747 -4.326236
v 17.761779 0.789747 -4.527822
v -15.036207 0.789746 -4.527819
v -15.036194 0.789746 -4.326236
v -15.036262 0.789746 4.420248
v -15.036259 0.789746 4.682896
v 16.211978 0.789746 -4.527822
v 16.211972 0.789746 -4.326236
v 16.211959 0.789746 4.420248
v 16.211938 0.789746 4.682896
v -16.467628 0.789746 28.704931
v -15.036135 0.789746 28.704931
v 16.212067 0.789746 28.704931
v 17.761871 0.789747 28.704931
v -16.467647 0.789746 26.765750
v -15.036154 0.789746 26.765750
v 16.212048 0.789746 26.765750
v 17.761851 0.789747 26.765750
v -16.467696 0.789746 -29.978961
v -15.036205 0.789746 -29.978961
v 16.211991 0.789746 -29.978961
v 17.761794 0.789747 -29.978961
v -16.467696 0.789746 -31.677977
v -15.036203 0.789746 -31.677977
v 16.211993 0.789746 -31.677977
v 17.761796 0.789746 -31.677977
vt 0.192280 0.546484
vt 0.192280 0.426357
vt 0.192280 0.543778
vt 0.192280 0.422831
vt 0.364487 0.422831
vt 0.364487 0.426357
vt 0.364487 0.543778
vt 0.364487 0.546484
vt 0.208961 0.546484
vt 0.208961 0.543778
vt 0.208961 0.426357
vt 0.208961 0.422831
vt 0.349347 0.546484
vt 0.349347 0.543778
vt 0.349347 0.426357
vt 0.349347 0.422831
vt 0.192280 0.100337
vt 0.208961 0.100337
vt 0.349347 0.100337
vt 0.364487 0.100337
vt 0.192280 0.148074
vt 0.208961 0.148074
vt 0.349347 0.148074
vt 0.364487 0.148074
vt 0.192280 0.810502
vt 0.208961 0.810502
vt 0.349347 0.810502
vt 0.364487 0.810502
vt 0.192280 0.860444
vt 0.208961 0.860444
vt 0.349347 0.860444
vt 0.364487 0.860444
vn -0.000000 1.000000 -0.000001
vn -0.000000 1.000000 -0.000000
vn 0.000000 1.000000 0.000000
vn 0.000000 1.000000 0.000000
vn -0.000000 1.000000 0.000000
vn -0.000000 1.000000 0.000000
vn 0.000000 1.000000 0.000000
vn 0.000000 1.000000 0.000000
vn -0.000000 1.000000 0.000000
vn -0.000000 1.000000 0.000000
vn 0.000000 1.000000 0.000000
vn 0.000000 1.000000 0.000000
vn -0.000000 1.000000 0.000000
vn -0.000000 1.000000 0.000000
vn 0.000000 1.000000 0.000000
vn -0.000000 1.000000 0.000000
vn 0.000000 1.000000 0.000000
vn 0.000000 1.000000 0.000000
vn -0.000000 1.000000 -0.000000
vn -0.000000 1.000000 -0.000000
vn 0.000000 1.000000 0.000000
vn 0.000000 1.000000 0.000000
vn -0.000000 1.000000 0.000000
vn -0.000000 1.000000 0.000000
vn 0.000000 1.000000 0.000000
vn 0.000000 1.000000 0.000000
vn -0.000000 1.000000 -0.000000
vn -0.000000 1.000000 0.000000
vn 0.000000 1.000000 0.000000
vn -0.000000 1.000000 -0.000000
vn -0.000000 1.000000 0.000000
vn -0.000000 1.000000 0.000000
vn -0.000000 1.000000 -0.000000
vn -0.000000 1.000000 0.000000
vn -0.000000 1.000000 -0.000000
vn -0.000000 1.000000 -0.000000
vn -0.000000 1.000000 0.000000
vn -0.000000 1.000000 0.000000
vn -0.000000 1.000000 0.000000
vn 0.000000 1.000000 0.000000
vn -0.000000 1.000000 0.000000
vn -0.000000 1.000000 -0.000000
vn 0.000000 1.000000 0.000000
vn -0.000000 1.000000 0.000000
vn -0.000000 1.000000 0.000000
vn -0.000000 1.000000 0.000000
vn -0.000000 1.000000 0.000000
vn -0.000000 1.000000 0.000000
s 1
g polySurface84 polySurface1
usemtl a_initialShadingGroup
f 15/15/1 16/16/2 6/6/3
f 6/6/3 16/16/2 5/5/4
s 2
f 14/14/5 15/15/6 7/7/7
f 7/7/7 15/15/6 6/6/8
s 3
f 13/13/9 14/14/10 8/8/11
f 8/8/11 14/14/10 7/7/12
s 4
f 16/16/13 23/23/14 5/5/15
f 5/5/15 23/23/14 24/24/16
s 5
f 4/1/17 3/3/18 9/9/19
f 9/9/19 3/3/18 10/10/20
s 6
f 3/3/21 2/2/22 10/10/23
f 10/10/23 2/2/22 11/11/24
s 7
f 2/2/25 1/4/26 11/11/27
f 11/11/27 1/4/26 12/12/28
s 4
f 1/4/29 21/21/30 12/12/31
f 12/12/31 21/21/30 22/22/32
f 22/22/32 21/21/30 18/18/33
f 18/18/33 21/21/30 17/17/34
f 23/23/14 22/22/32 19/19/35
f 19/19/35 22/22/32 18/18/33
f 24/24/16 23/23/14 20/20/36
f 20/20/36 23/23/14 19/19/35
s 9
f 26/26/37 25/25/38 9/9/39
f 9/9/39 25/25/38 4/1/40
f 28/28/41 27/27/42 8/8/43
f 8/8/43 27/27/42 13/13/44
f 30/30/45 29/29/46 26/26/37
f 26/26/37 29/29/46 25/25/38
f 31/31/47 30/30/45 27/27/42
f 27/27/42 30/30/45 26/26/37
f 32/32/48 31/31/47 28/28/41
f 28/28/41 31/31/47 27/27/42
