# This file uses centimeters as units for non-parametric coordinates.

mtllib pozo.mtl
g default
v -15.071842 0.789742 -4.518076
v -15.071835 0.789742 -4.316493
v -15.071903 0.789742 4.429992
v -15.071896 0.789742 4.692639
v 16.176342 0.789743 -4.518079
v 16.176335 0.789743 -4.316493
v 16.176320 0.789743 4.429992
v 16.176301 0.789743 4.692639
v -15.071789 0.789742 26.775493
v 16.176411 0.789743 26.775493
v -15.071842 0.789742 -29.969217
v 16.176354 0.789743 -29.969217
vt 0.208961 0.546484
vt 0.208961 0.543778
vt 0.208961 0.426357
vt 0.208961 0.422831
vt 0.349347 0.546484
vt 0.349347 0.543778
vt 0.349347 0.426357
vt 0.349347 0.422831
vt 0.208961 0.148074
vt 0.349347 0.148074
vt 0.208961 0.810502
vt 0.349347 0.810502
vn -0.000000 1.000000 0.000000
vn -0.000000 1.000000 0.000000
vn -0.000000 1.000000 0.000000
vn -0.000000 1.000000 0.000000
vn -0.000000 1.000000 0.000000
vn -0.000000 1.000000 -0.000000
vn -0.000000 1.000000 -0.000000
vn -0.000000 1.000000 -0.000000
vn -0.000000 1.000000 0.000000
vn -0.000000 1.000000 0.000000
vn -0.000000 1.000000 0.000000
vn -0.000000 1.000000 0.000000
vn -0.000000 1.000000 -0.000000
vn -0.000000 1.000000 -0.000000
vn -0.000000 1.000000 -0.000000
vn -0.000000 1.000000 0.000000
vn -0.000000 1.000000 -0.000000
vn -0.000000 1.000000 -0.000000
vn -0.000000 1.000000 -0.000000
vn -0.000000 1.000000 0.000000
s 1
g polySurface83 polySurface1
usemtl a_initialShadingGroup
f 1/1/1 2/2/2 5/5/3
f 5/5/3 2/2/2 6/6/4
s 2
f 2/2/5 3/3/6 6/6/7
f 6/6/7 3/3/6 7/7/8
s 3
f 3/3/9 4/4/10 7/7/11
f 7/7/11 4/4/10 8/8/12
s 4
f 4/4/13 9/9/14 8/8/15
f 8/8/15 9/9/14 10/10/16
s 5
f 12/12/17 11/11/18 5/5/19
f 5/5/19 11/11/18 1/1/20
