# This file uses centimeters as units for non-parametric coordinates.

mtllib silla.mtl
g default
v -33.468665 3.128009 42.915746
v -29.491099 3.128009 45.621338
v -33.468665 6.393256 42.915746
v -29.491099 6.393256 45.621338
v -30.281521 6.393256 38.230231
v -26.303953 6.393256 40.935825
v -30.281521 3.128009 38.230231
v -26.303953 3.128009 40.935825
v -26.649779 6.393256 40.692167
v -26.653696 3.128008 40.697925
v -29.840841 3.128008 45.383439
v -29.840841 6.393256 45.383439
v -29.961542 6.393256 38.439462
v -29.965461 3.128009 38.445219
v -33.152609 3.128009 43.130738
v -33.152609 6.393256 43.130738
v -30.470347 6.393256 39.187470
v -30.786407 6.393256 38.972481
v -30.786407 3.128009 38.972481
v -30.470347 3.128009 39.187470
v -27.158588 3.128009 41.440178
v -26.808843 3.128009 41.678080
v -26.808843 6.393256 41.678080
v -27.158588 6.393256 41.440178
v -32.682691 6.393256 42.439893
v -32.998749 6.393256 42.224906
v -32.998749 3.128009 42.224906
v -32.682691 3.128009 42.439893
v -29.370926 3.128009 44.692599
v -29.021182 3.128009 44.930500
v -29.021182 6.393256 44.930500
v -29.370926 6.393256 44.692599
v -29.965461 3.368414 38.445219
v -30.281521 3.368414 38.230231
v -30.786407 3.368414 38.972481
v -32.998749 3.368414 42.224906
v -33.468665 3.368414 42.915746
v -33.152609 3.368414 43.130738
v -29.840841 3.368414 45.383439
v -29.491099 3.368414 45.621338
v -29.021182 3.368414 44.930500
v -26.808843 3.368414 41.678080
v -26.303953 3.368414 40.935825
v -26.653696 3.368414 40.697925
v -27.158588 4.726749 41.440178
v -30.470347 4.726749 39.187470
v -32.682691 4.726749 42.439893
v -29.370926 4.726749 44.692599
v -26.649779 4.701877 40.692167
v -29.961542 4.701877 38.439462
v -30.281521 4.677006 38.230231
v -30.786407 4.677006 38.972481
v -32.998749 4.677006 42.224906
v -33.468665 4.677006 42.915746
v -33.152609 4.677006 43.130738
v -29.840841 4.677006 45.383439
v -29.491099 4.677006 45.621338
v -29.021182 4.677006 44.930500
v -26.808843 4.677006 41.678080
v -26.303953 4.677006 40.935825
v -33.503639 6.393256 41.881474
v -31.291298 6.393256 38.629048
v -31.291298 4.677006 38.629048
v -33.503639 4.677006 41.881474
v -30.786407 1.002607 38.972481
v -32.998749 1.002607 42.224906
v -33.503639 1.002607 41.881474
v -31.291298 1.002607 38.629048
v -33.468668 7.044517 42.915743
v -33.152606 7.044517 43.130733
v -32.682688 7.044517 42.439889
v -32.998748 7.044517 42.224900
v -29.840845 7.044516 45.383437
v -29.370926 7.044517 44.692599
v -29.491099 7.044517 45.621338
v -29.021178 7.044517 44.930495
v -32.998749 0.392861 42.224906
v -32.682691 0.392861 42.439893
v -33.152609 0.392861 43.130738
v -33.468665 0.392861 42.915746
v -29.370926 0.392861 44.692599
v -29.840841 0.392860 45.383439
v -29.021182 0.392861 44.930500
v -29.491099 0.392861 45.621338
vt 0.375000 0.000000
vt 0.625000 0.000000
vt 0.375000 0.250000
vt 0.625000 0.250000
vt 0.375000 0.500000
vt 0.625000 0.500000
vt 0.375000 0.750000
vt 0.625000 0.750000
vt 0.375000 1.000000
vt 0.625000 1.000000
vt 0.875000 0.000000
vt 0.875000 0.250000
vt 0.125000 0.000000
vt 0.125000 0.250000
vt 0.603018 0.500000
vt 0.603018 0.750000
vt 0.603018 0.000000
vt 0.603018 1.000000
vt 0.603018 0.250000
vt 0.394865 0.500000
vt 0.394865 0.750000
vt 0.394865 0.000000
vt 0.394865 1.000000
vt 0.394865 0.250000
vt 0.394865 0.460397
vt 0.164603 0.250000
vt 0.375000 0.460397
vt 0.164603 0.000000
vt 0.375000 0.789603
vt 0.394865 0.789603
vt 0.603018 0.789603
vt 0.625000 0.789603
vt 0.835397 0.000000
vt 0.625000 0.460397
vt 0.835397 0.250000
vt 0.603018 0.460397
vt 0.394865 0.286861
vt 0.338139 0.250000
vt 0.375000 0.286861
vt 0.338139 0.000000
vt 0.375000 0.963139
vt 0.394865 0.963139
vt 0.603018 0.963139
vt 0.625000 0.963139
vt 0.661861 0.000000
vt 0.625000 0.286861
vt 0.661861 0.250000
vt 0.603018 0.286861
vt 0.394865 0.731594
vt 0.125000 0.018406
vt 0.375000 0.731594
vt 0.164603 0.018406
vt 0.338139 0.018406
vt 0.375000 0.018406
vt 0.394865 0.018406
vt 0.603018 0.018406
vt 0.625000 0.018406
vt 0.661861 0.018406
vt 0.835397 0.018406
vt 0.625000 0.731594
vt 0.875000 0.018406
vt 0.603018 0.731594
vt 0.603018 0.460397
vt 0.394865 0.460397
vt 0.394865 0.286861
vt 0.603018 0.286861
vt 0.603018 0.631403
vt 0.394865 0.631403
vt 0.125000 0.118597
vt 0.375000 0.631403
vt 0.164603 0.118597
vt 0.338139 0.118597
vt 0.375000 0.118597
vt 0.394865 0.118597
vt 0.603018 0.118597
vt 0.625000 0.118597
vt 0.661861 0.118597
vt 0.835397 0.118597
vt 0.625000 0.631403
vt 0.875000 0.118597
vt 0.000000 0.000000
vt 1.000000 0.000000
vt 1.000000 1.000000
vt 0.000000 1.000000
vt 0.000000 0.000000
vt 1.000000 0.000000
vt 1.000000 1.000000
vt 0.000000 1.000000
vt 0.000000 0.000000
vt 1.000000 0.000000
vt 1.000000 1.000000
vt 0.000000 1.000000
vt 0.338139 0.250000
vt 0.164603 0.250000
vt 0.164603 0.118597
vt 0.338139 0.118597
vt 0.164603 0.118597
vt 0.338139 0.118597
vt 0.338139 0.118597
vt 0.164603 0.118597
vt 0.375000 0.250000
vt 0.394865 0.250000
vt 0.394865 0.286861
vt 0.375000 0.286861
vt 0.603018 0.250000
vt 0.625000 0.250000
vt 0.625000 0.286861
vt 0.603018 0.286861
vt 0.375000 0.963139
vt 0.394865 0.963139
vt 0.394865 1.000000
vt 0.375000 1.000000
vt 0.603018 0.963139
vt 0.625000 0.963139
vt 0.625000 1.000000
vt 0.603018 1.000000
vn -0.562434 0.000000 0.826842
vn -0.562443 0.000000 0.826836
vn -0.562436 0.000000 0.826841
vn -0.562442 0.000000 0.826836
vn 0.000000 1.000000 0.000000
vn -0.000000 1.000000 0.000000
vn 0.000000 1.000000 0.000000
vn -0.000000 1.000000 0.000000
vn 0.547277 0.000000 -0.836952
vn 0.551151 -0.002611 -0.834401
vn 0.547277 0.000000 -0.836952
vn 0.552442 -0.001741 -0.833550
vn 0.000000 -1.000000 -0.000000
vn 0.000000 -1.000000 -0.000000
vn 0.000000 -1.000000 -0.000000
vn -0.000000 -1.000000 -0.000000
vn 0.826845 0.000000 0.562431
vn 0.826845 0.000000 0.562431
vn 0.826845 0.000000 0.562431
vn 0.826845 0.000000 0.562431
vn -0.826846 0.000000 -0.562428
vn -0.826846 0.000000 -0.562428
vn -0.826846 0.000000 -0.562428
vn -0.826846 0.000000 -0.562429
vn 0.575965 0.000000 -0.817475
vn 0.575965 0.000000 -0.817474
vn 0.570517 -0.003133 -0.821280
vn 0.571386 -0.001741 -0.820680
vn 0.000000 -1.000000 0.000000
vn 0.000000 -1.000000 0.000000
vn 0.000000 -1.000000 0.000000
vn 0.000000 -1.000000 0.000000
vn -0.562431 0.000000 0.826845
vn -0.562430 0.000000 0.826845
vn -0.562431 0.000000 0.826845
vn -0.562430 0.000000 0.826845
vn -0.000001 1.000000 0.000001
vn -0.000001 1.000000 0.000000
vn -0.000001 1.000000 -0.000000
vn -0.000002 1.000000 -0.000001
vn -0.000000 1.000000 0.000000
vn -0.000000 1.000000 0.000000
vn -0.000000 1.000000 0.000000
vn 0.000000 1.000000 0.000000
vn -0.826846 0.000000 -0.562429
vn -0.826846 0.000000 -0.562429
vn -0.826845 0.000000 -0.562429
vn -0.826846 0.000000 -0.562429
vn -0.000000 -1.000000 0.000000
vn -0.000000 -1.000000 0.000000
vn -0.000000 -1.000000 0.000000
vn -0.000000 -1.000000 0.000000
vn 0.000000 -1.000000 0.000000
vn 0.000000 -1.000000 0.000001
vn 0.000000 -1.000000 -0.000000
vn 0.000000 -1.000000 0.000001
vn 0.826846 0.000000 0.562429
vn 0.826845 0.000000 0.562429
vn 0.826846 0.000000 0.562429
vn 0.826845 0.000000 0.562430
vn 0.000000 1.000000 0.000000
vn 0.000000 1.000000 -0.000000
vn 0.000000 1.000000 -0.000000
vn 0.000000 1.000000 -0.000000
vn 0.000000 1.000000 0.000000
vn 0.000000 1.000000 0.000000
vn -0.826845 0.000000 -0.562430
vn -0.826845 0.000000 -0.562430
vn -0.826845 0.000000 -0.562430
vn -0.826845 0.000000 -0.562430
vn 0.000000 -1.000000 0.000000
vn 0.000000 -1.000000 -0.000000
vn -0.000000 -1.000000 0.000000
vn 0.000000 -1.000000 0.000000
vn 0.000000 1.000000 0.000000
vn 0.000000 1.000000 0.000000
vn 0.000000 1.000000 -0.000000
vn -0.000000 1.000000 0.000000
vn -0.000000 1.000000 0.000000
vn -0.000000 1.000000 0.000000
vn 0.562431 0.000000 -0.826845
vn 0.560316 -0.002238 -0.828276
vn 0.562431 0.000000 -0.826845
vn 0.562431 0.000000 -0.826845
vn -0.826846 0.000000 -0.562429
vn -0.826845 0.000000 -0.562429
vn -0.826846 0.000000 -0.562429
vn -0.826845 0.000000 -0.562430
vn -0.826845 0.000000 -0.562430
vn -0.826845 0.000000 -0.562429
vn -0.826846 0.000000 -0.562428
vn -0.826846 0.000000 -0.562428
vn -0.562443 0.000000 0.826836
vn -0.562438 0.000000 0.826839
vn -0.562443 0.000000 0.826836
vn -0.562436 0.000000 0.826841
vn -0.562430 0.000000 0.826845
vn -0.562430 0.000000 0.826845
vn -0.562431 0.000000 0.826845
vn -0.562430 0.000000 0.826845
vn 0.826845 0.000000 0.562431
vn 0.826845 0.000000 0.562431
vn 0.826845 0.000000 0.562431
vn 0.826845 0.000000 0.562431
vn 0.826845 0.000000 0.562430
vn 0.826845 0.000000 0.562430
vn 0.826846 0.000000 0.562429
vn 0.826846 0.000000 0.562429
vn 0.564654 -0.001741 -0.825326
vn 0.562431 0.000000 -0.826844
vn 0.562431 0.000000 -0.826844
vn 0.562431 0.000000 -0.826844
vn 0.826844 0.000000 0.562431
vn 0.826844 0.000000 0.562431
vn 0.826844 0.000000 0.562431
vn 0.826844 0.000000 0.562431
vn 0.562431 0.000000 -0.826845
vn 0.562431 0.000000 -0.826845
vn 0.562431 0.000000 -0.826845
vn 0.562431 0.000000 -0.826845
vn -0.826845 0.000000 -0.562430
vn -0.826845 0.000000 -0.562430
vn -0.826845 0.000000 -0.562430
vn -0.826845 0.000000 -0.562430
vn -0.826843 0.000000 -0.562432
vn -0.826843 0.000000 -0.562432
vn -0.826843 0.000000 -0.562432
vn -0.826843 0.000000 -0.562432
vn 0.826845 0.000000 0.562431
vn 0.826845 0.000000 0.562431
vn 0.826845 0.000000 0.562431
vn 0.826845 0.000000 0.562431
vn 0.015457 0.999622 -0.022723
vn 0.015457 0.999622 -0.022723
vn 0.015457 0.999622 -0.022723
vn 0.015457 0.999622 -0.022723
vn 0.000000 1.000000 0.000000
vn -0.000000 1.000000 0.000000
vn -0.000000 1.000000 0.000000
vn -0.000000 1.000000 0.000000
vn 0.562431 0.000000 -0.826845
vn 0.562431 0.000000 -0.826845
vn 0.562431 0.000000 -0.826845
vn 0.562431 0.000000 -0.826845
vn 0.000000 -1.000000 0.000000
vn 0.000000 -1.000000 -0.000000
vn 0.000000 -1.000000 -0.000000
vn 0.000000 -1.000000 -0.000000
vn -0.562431 0.000000 0.826845
vn -0.562431 0.000000 0.826845
vn -0.562431 0.000000 0.826845
vn -0.562431 0.000000 0.826845
vn 0.826845 0.000000 0.562431
vn 0.826845 0.000000 0.562431
vn 0.826845 0.000000 0.562431
vn 0.826845 0.000000 0.562431
vn -0.562431 0.000000 0.826845
vn -0.562431 0.000000 0.826845
vn -0.562431 0.000000 0.826845
vn -0.562431 0.000000 0.826845
vn -0.826845 0.000000 -0.562430
vn -0.826845 0.000000 -0.562430
vn -0.826845 0.000000 -0.562430
vn -0.826845 0.000000 -0.562430
vn 0.562431 0.000000 -0.826845
vn 0.562431 0.000000 -0.826845
vn 0.562431 0.000000 -0.826845
vn 0.562431 0.000000 -0.826845
vn -0.562443 -0.000000 0.826836
vn -0.562437 0.000004 0.826840
vn -0.562437 0.000004 0.826840
vn -0.562431 0.000009 0.826845
vn 0.562431 -0.000009 -0.826845
vn 0.562431 -0.000009 -0.826845
vn 0.562431 -0.000009 -0.826845
vn 0.562431 -0.000009 -0.826845
vn -0.826846 -0.000003 -0.562428
vn -0.826845 -0.000005 -0.562429
vn -0.826845 -0.000005 -0.562429
vn -0.826845 -0.000006 -0.562431
vn -0.562431 0.000000 0.826845
vn -0.562431 0.000000 0.826844
vn -0.562431 0.000000 0.826844
vn -0.562431 0.000000 0.826844
vn 0.826845 0.000000 0.562431
vn 0.826845 0.000000 0.562431
vn 0.826845 0.000000 0.562431
vn 0.826845 0.000000 0.562431
vn 0.562431 -0.000009 -0.826845
vn 0.562425 -0.000004 -0.826848
vn 0.562425 -0.000004 -0.826848
vn 0.562419 0.000000 -0.826852
vn 0.562431 0.000000 -0.826845
vn 0.562431 -0.000004 -0.826844
vn 0.562431 -0.000004 -0.826844
vn 0.562432 -0.000009 -0.826844
vn -0.562429 0.000009 0.826845
vn -0.562430 0.000004 0.826845
vn -0.562430 0.000004 0.826845
vn -0.562431 0.000000 0.826845
vn 0.562431 0.000000 -0.826845
vn 0.562431 0.000000 -0.826845
vn 0.562431 0.000000 -0.826845
vn 0.562431 0.000000 -0.826845
vn -0.562443 0.000000 0.826836
vn -0.562443 0.000000 0.826836
vn -0.562443 0.000000 0.826836
vn -0.562442 0.000000 0.826837
vn -0.826846 0.000000 -0.562428
vn -0.826846 0.000000 -0.562428
vn -0.826846 0.000000 -0.562428
vn -0.826846 0.000000 -0.562428
vn 0.562431 0.000000 -0.826845
vn 0.562431 0.000000 -0.826845
vn 0.562431 0.000000 -0.826845
vn 0.562431 0.000000 -0.826845
vn 0.826845 0.000000 0.562431
vn 0.826845 0.000000 0.562431
vn 0.826845 0.000000 0.562431
vn 0.826845 0.000000 0.562431
vn -0.562431 0.000000 0.826845
vn -0.562431 0.000000 0.826845
vn -0.562431 0.000000 0.826845
vn -0.562430 0.000000 0.826845
vn 0.562431 0.000000 -0.826845
vn 0.562431 0.000000 -0.826845
vn 0.562431 0.000000 -0.826845
vn 0.562431 0.000000 -0.826845
vn -0.562429 0.000000 0.826845
vn -0.562429 0.000000 0.826845
vn -0.562429 0.000000 0.826845
vn -0.562429 0.000000 0.826845
s 1
g pCube89
usemtl initialShadingGroup
f 16/24/1 3/3/2 55/74/3
f 55/74/3 3/3/2 54/73/4
s 2
f 69/101/5 70/102/6 72/104/7
f 72/104/7 70/102/6 71/103/8
s 3
f 13/20/9 50/68/10 5/5/11
f 5/5/11 50/68/10 51/70/12
s 4
f 77/109/13 78/110/14 80/112/15
f 80/112/15 78/110/14 79/111/16
s 5
f 31/47/17 4/4/18 58/77/19
f 58/77/19 4/4/18 57/76/20
s 6
f 3/3/21 26/38/22 54/73/23
f 54/73/23 26/38/22 53/72/24
s 3
f 9/15/25 6/6/26 49/67/27
f 49/67/27 6/6/26 60/79/28
s 4
f 82/116/29 81/113/30 84/115/31
f 84/115/31 81/113/30 83/114/32
s 1
f 4/4/33 12/19/34 57/76/35
f 57/76/35 12/19/34 56/75/36
s 2
f 74/108/37 73/105/38 76/107/39
f 76/107/39 73/105/38 75/106/40
s 4
f 79/111/16 78/110/14 82/116/29
f 82/116/29 78/110/14 81/113/30
s 1
f 12/19/34 16/24/1 56/75/36
f 56/75/36 16/24/1 55/74/3
s 2
f 74/108/37 71/103/8 73/105/38
f 73/105/38 71/103/8 70/102/6
s 11
f 18/27/41 17/25/42 5/5/43
f 5/5/43 17/25/42 13/20/44
s 6
f 18/26/45 5/14/46 52/71/47
f 52/71/47 5/14/46 51/69/48
s 13
f 7/7/49 14/21/50 19/29/51
f 19/29/51 14/21/50 20/30/52
f 21/31/53 20/30/52 10/16/54
f 10/16/54 20/30/52 14/21/50
f 22/32/55 21/31/53 8/8/56
f 8/8/56 21/31/53 10/16/54
s 5
f 6/12/57 23/35/58 60/80/59
f 60/80/59 23/35/58 59/78/60
s 17
f 9/15/61 24/36/62 6/6/63
f 6/6/63 24/36/62 23/34/64
s 11
f 26/39/65 25/37/66 18/27/41
f 18/27/41 25/37/66 17/25/42
s 18
f 61/93/67 62/94/68 64/96/69
f 64/96/69 62/94/68 63/95/70
s 13
f 19/29/51 20/30/52 27/41/71
f 27/41/71 20/30/52 28/42/72
f 29/43/73 28/42/72 21/31/53
f 21/31/53 28/42/72 20/30/52
f 30/44/74 29/43/73 22/32/55
f 22/32/55 29/43/73 21/31/53
s 5
f 23/35/58 31/47/17 59/78/60
f 59/78/60 31/47/17 58/77/19
s 17
f 24/36/62 32/48/75 23/34/64
f 23/34/64 32/48/75 31/46/76
s 19
f 45/63/77 46/64/78 48/66/79
f 48/66/79 46/64/78 47/65/80
s 3
f 34/51/81 33/49/82 7/7/83
f 7/7/83 33/49/82 14/21/84
s 6
f 7/13/85 19/28/86 34/50/87
f 34/50/87 19/28/86 35/52/88
f 19/28/86 27/40/89 35/52/88
f 35/52/88 27/40/89 36/53/90
f 27/40/89 1/1/91 36/53/90
f 36/53/90 1/1/91 37/54/92
s 1
f 1/1/93 15/22/94 37/54/95
f 37/54/95 15/22/94 38/55/96
f 39/56/97 38/55/96 11/17/98
f 11/17/98 38/55/96 15/22/94
f 40/57/99 39/56/97 2/2/100
f 2/2/100 39/56/97 11/17/98
s 5
f 2/2/101 30/45/102 40/57/103
f 40/57/103 30/45/102 41/58/104
f 42/59/105 41/58/104 22/33/106
f 22/33/106 41/58/104 30/45/102
f 43/61/107 42/59/105 8/11/108
f 8/11/108 42/59/105 22/33/106
s 3
f 44/62/109 43/60/110 10/16/111
f 10/16/111 43/60/110 8/8/112
f 33/49/82 44/62/109 14/21/84
f 14/21/84 44/62/109 10/16/111
s 29
f 17/25/113 25/37/114 46/64/115
f 46/64/115 25/37/114 47/65/116
s 30
f 25/37/117 32/48/118 47/65/119
f 47/65/119 32/48/118 48/66/120
s 31
f 32/48/121 24/36/122 48/66/123
f 48/66/123 24/36/122 45/63/124
s 3
f 50/68/10 49/67/27 33/49/82
f 33/49/82 49/67/27 44/62/109
f 50/68/10 33/49/82 51/70/12
f 51/70/12 33/49/82 34/51/81
s 6
f 34/50/87 35/52/88 51/69/48
f 51/69/48 35/52/88 52/71/47
f 35/52/88 36/53/90 52/71/47
f 52/71/47 36/53/90 53/72/24
f 36/53/90 37/54/92 53/72/24
f 53/72/24 37/54/92 54/73/23
s 1
f 37/54/95 38/55/96 54/73/4
f 54/73/4 38/55/96 55/74/3
f 56/75/36 55/74/3 39/56/97
f 39/56/97 55/74/3 38/55/96
f 57/76/35 56/75/36 40/57/99
f 40/57/99 56/75/36 39/56/97
s 5
f 40/57/103 41/58/104 57/76/20
f 57/76/20 41/58/104 58/77/19
f 59/78/60 58/77/19 42/59/105
f 42/59/105 58/77/19 41/58/104
f 60/80/59 59/78/60 43/61/107
f 43/61/107 59/78/60 42/59/105
s 3
f 49/67/27 60/79/28 44/62/109
f 44/62/109 60/79/28 43/60/110
s 32
f 24/82/125 9/83/126 45/81/127
f 45/81/127 9/83/126 49/84/128
s 33
f 17/85/129 46/86/130 13/88/131
f 13/88/131 46/86/130 50/87/132
s 34
f 46/89/133 45/90/134 50/92/135
f 50/92/135 45/90/134 49/91/136
s 35
f 26/38/137 18/26/138 61/93/139
f 61/93/139 18/26/138 62/94/140
s 36
f 18/26/141 52/71/142 62/94/143
f 62/94/143 52/71/142 63/95/144
s 37
f 65/97/145 66/98/146 68/100/147
f 68/100/147 66/98/146 67/99/148
s 38
f 53/72/149 26/38/150 64/96/151
f 64/96/151 26/38/150 61/93/152
s 39
f 52/71/153 53/72/154 65/97/155
f 65/97/155 53/72/154 66/98/156
s 40
f 53/72/157 64/96/158 66/98/159
f 66/98/159 64/96/158 67/99/160
s 41
f 64/96/161 63/95/162 67/99/163
f 67/99/163 63/95/162 68/100/164
s 42
f 63/95/165 52/71/166 68/100/167
f 68/100/167 52/71/166 65/97/168
s 43
f 3/3/169 16/24/170 69/101/171
f 69/101/171 16/24/170 70/102/172
s 44
f 25/37/173 26/39/174 71/103/175
f 71/103/175 26/39/174 72/104/176
s 45
f 26/39/177 3/3/178 72/104/179
f 72/104/179 3/3/178 69/101/180
s 46
f 12/19/181 4/4/182 73/105/183
f 73/105/183 4/4/182 75/106/184
s 47
f 4/4/185 31/46/186 75/106/187
f 75/106/187 31/46/186 76/107/188
s 48
f 31/46/189 32/48/190 76/107/191
f 76/107/191 32/48/190 74/108/192
s 49
f 32/48/193 25/37/194 74/108/195
f 74/108/195 25/37/194 71/103/196
s 50
f 16/24/197 12/19/198 70/102/199
f 70/102/199 12/19/198 73/105/200
s 51
f 27/41/201 28/42/202 77/109/203
f 77/109/203 28/42/202 78/110/204
s 52
f 15/23/205 1/9/206 79/111/207
f 79/111/207 1/9/206 80/112/208
s 53
f 1/9/209 27/41/210 80/112/211
f 80/112/211 27/41/210 77/109/212
s 54
f 29/43/213 30/44/214 81/113/215
f 81/113/215 30/44/214 83/114/216
s 55
f 30/44/217 2/10/218 83/114/219
f 83/114/219 2/10/218 84/115/220
s 56
f 2/10/221 11/18/222 84/115/223
f 84/115/223 11/18/222 82/116/224
s 57
f 28/42/225 29/43/226 78/110/227
f 78/110/227 29/43/226 81/113/228
s 58
f 11/18/229 15/23/230 82/116/231
f 82/116/231 15/23/230 79/111/232
