# This file uses centimeters as units for non-parametric coordinates.

mtllib techo23.mtl
g default
v 68.220965 37.227393 89.975161
v -73.076096 37.227393 89.975161
v 68.220965 37.227393 -71.490522
v -73.076096 37.227393 -71.490522
v 33.467292 37.227393 89.975161
v 33.467292 37.227393 -71.490522
v -33.713016 37.227393 89.975161
v -33.713016 37.227393 -71.490522
v -33.713016 37.227393 -45.592617
v 33.467292 37.227393 -45.592617
v 68.220965 37.227393 -45.592617
v -73.076096 37.227393 -45.592617
v -33.713016 37.227393 45.186673
v 33.467292 37.227393 45.186673
v 68.220965 37.227393 45.186673
v -73.076089 37.227393 45.186673
vt 0.375000 0.250000
vt 0.625000 0.250000
vt 0.375000 0.500000
vt 0.625000 0.500000
vt 0.429172 0.250000
vt 0.429172 0.500000
vt 0.573178 0.250000
vt 0.573178 0.500000
vt 0.573178 0.454832
vt 0.429172 0.454832
vt 0.375000 0.454832
vt 0.625000 0.454832
vt 0.573178 0.297633
vt 0.429172 0.297633
vt 0.375000 0.297633
vt 0.625000 0.297633
vn -0.000000 -1.000000 0.000000
vn -0.000000 -1.000000 0.000000
vn -0.000000 -1.000000 0.000000
vn -0.000000 -1.000000 0.000000
vn -0.000000 -1.000000 -0.000000
vn -0.000000 -1.000000 0.000000
vn -0.000000 -1.000000 -0.000000
vn -0.000000 -1.000000 -0.000000
vn -0.000000 -1.000000 0.000000
vn -0.000000 -1.000000 0.000000
vn -0.000000 -1.000000 0.000000
vn -0.000000 -1.000000 0.000000
vn -0.000000 -1.000000 0.000000
vn -0.000000 -1.000000 0.000000
vn -0.000000 -1.000000 0.000000
vn -0.000000 -1.000000 0.000000
s 1
g pCube104
usemtl initialShadingGroup
f 1/1/1 5/5/2 15/15/3
f 15/15/3 5/5/2 14/14/4
f 14/14/4 5/5/2 13/13/5
f 13/13/5 5/5/2 7/7/6
f 16/16/7 13/13/5 2/2/8
f 2/2/8 13/13/5 7/7/6
f 6/6/9 10/10/10 8/8/11
f 8/8/11 10/10/10 9/9/12
f 11/11/13 10/10/10 3/3/14
f 3/3/14 10/10/10 6/6/9
f 8/8/11 9/9/12 4/4/15
f 4/4/15 9/9/12 12/12/16
f 15/15/3 14/14/4 11/11/13
f 11/11/13 14/14/4 10/10/10
f 12/12/16 9/9/12 16/16/7
f 16/16/7 9/9/12 13/13/5
