# This file uses centimeters as units for non-parametric coordinates.

mtllib ventana.mtl
g default
v 45.997730 13.714664 46.824248
v 45.997730 13.714664 33.203761
v 45.997730 5.565552 46.824248
v 45.997730 5.565552 33.203761
vt 0.000000 0.000000
vt 1.000000 0.000000
vt 0.000000 0.541700
vt 1.000000 0.541700
vn -1.000000 -0.000000 -0.000000
vn -1.000000 -0.000000 -0.000000
vn -1.000000 -0.000000 -0.000000
vn -1.000000 -0.000000 -0.000000
s 1
g pPlane24
usemtl initialShadingGroup
f 1/1/1 2/2/2 3/3/3
f 3/3/3 2/2/2 4/4/4
g default
v 45.997730 13.714664 33.173052
v 45.997730 13.714664 19.810236
v 45.997730 5.565552 33.173052
v 45.997730 5.565552 19.810236
vt 0.000000 0.000000
vt 1.000000 0.000000
vt 0.000000 0.541700
vt 1.000000 0.541700
vn -1.000000 -0.000000 -0.000000
vn -1.000000 -0.000000 -0.000000
vn -1.000000 -0.000000 -0.000000
vn -1.000000 -0.000000 -0.000000
s 1
g pPlane23
usemtl initialShadingGroup
f 5/5/5 6/6/6 7/7/7
f 7/7/7 6/6/6 8/8/8
g default
v -30.132957 7.065319 -66.385378
v -21.115488 7.065319 -66.385378
v -30.132957 13.144633 -66.385378
v -21.115488 13.144633 -66.385378
vt 0.000000 0.000000
vt 1.000000 0.000000
vt 0.000000 0.541700
vt 1.000000 0.541700
vn 0.000000 -0.000000 1.000000
vn 0.000000 -0.000000 1.000000
vn 0.000000 -0.000000 1.000000
vn 0.000000 -0.000000 1.000000
s 1
g pPlane22
usemtl initialShadingGroup
f 9/9/9 10/10/10 11/11/11
f 11/11/11 10/10/10 12/12/12
